<svg width="146" height="52" viewBox="0 0 146 52" fill="none" xmlns="http://www.w3.org/2000/svg">
<path d="M145 1H1V51H145V1Z" stroke="#979797"/>
<path d="M38.3877 26.0423C38.4104 24.2781 39.3353 22.6486 40.8382 21.7246C39.8858 20.3643 38.3476 19.5328 36.6878 19.4808C34.9416 19.2975 33.2487 20.5258 32.3588 20.5258C31.4518 20.5258 30.0817 19.499 28.6064 19.5294C26.6652 19.5921 24.8994 20.669 23.955 22.3661C21.9439 25.8481 23.444 30.9655 25.3705 33.7801C26.3344 35.1583 27.4609 36.6978 28.9349 36.6432C30.3773 36.5834 30.916 35.7235 32.6571 35.7235C34.382 35.7235 34.8874 36.6432 36.3914 36.6085C37.9391 36.5834 38.9143 35.2242 39.8444 33.8329C40.5369 32.8509 41.0698 31.7655 41.4234 30.617C39.5851 29.8395 38.3898 28.0382 38.3877 26.0423Z" fill="white"/>
<path d="M35.547 17.6299C36.3909 16.6168 36.8066 15.3147 36.706 14C35.4167 14.1354 34.2257 14.7516 33.3704 15.7258C32.5258 16.687 32.098 17.9445 32.1811 19.2213C33.4877 19.2348 34.7282 18.6482 35.547 17.6299Z" fill="white"/>
<path fill-rule="evenodd" clip-rule="evenodd" d="M50.9595 33.2928H55.6929L56.8287 36.6492H58.8677L54.3843 24.2312H52.3013L47.8179 36.6492H49.8228L50.9595 33.2928ZM55.2018 31.7439H51.4498L53.3003 26.2967H53.3521L55.2018 31.7439Z" fill="white"/>
<path fill-rule="evenodd" clip-rule="evenodd" d="M64.772 36.7439C67.0445 36.7439 68.5503 34.9363 68.5503 32.1228C68.5503 29.3171 67.0357 27.5007 64.7378 27.5007C63.5554 27.4626 62.4478 28.0776 61.855 29.1013H61.8208V27.5955H60.022V39.6443H61.8804V35.1599H61.9234C62.491 36.1901 63.5974 36.8053 64.772 36.7439ZM64.2476 29.0847C65.6929 29.0847 66.6402 30.2898 66.6402 32.1228H66.6401C66.6401 33.9724 65.6929 35.1687 64.2476 35.1687C62.8277 35.1687 61.8726 33.947 61.8726 32.1228C61.8726 30.3152 62.8277 29.0847 64.2476 29.0847Z" fill="white"/>
<path fill-rule="evenodd" clip-rule="evenodd" d="M74.7367 36.7439C77.0087 36.7439 78.5147 34.9363 78.5147 32.1228C78.5147 29.3171 76.9997 27.5007 74.7017 27.5007C73.5197 27.4626 72.4122 28.0776 71.8193 29.1013H71.7852V27.5955H69.9863V39.6443H71.8447V35.1599H71.8877C72.4553 36.1901 73.5617 36.8053 74.7367 36.7439ZM74.2117 29.0847C75.6577 29.0847 76.6047 30.2898 76.6047 32.1228C76.6047 33.9724 75.6577 35.1687 74.2117 35.1687C72.792 35.1687 71.837 33.947 71.837 32.1228C71.837 30.3152 72.792 29.0847 74.2117 29.0847Z" fill="white"/>
<path d="M85.1002 33.1893C85.2382 34.4207 86.4342 35.2293 88.0692 35.2293C89.6362 35.2293 90.7632 34.4207 90.7632 33.3103C90.7632 32.3464 90.0832 31.7693 88.4732 31.3738L86.8642 30.9861C84.5842 30.4353 83.5252 29.3689 83.5252 27.6384C83.5252 25.4958 85.3922 24.0242 88.0432 24.0242C90.6682 24.0242 92.4672 25.4958 92.5272 27.6384H90.6512C90.5392 26.3992 89.5142 25.6511 88.0172 25.6511C86.5202 25.6511 85.4962 26.408 85.4962 27.5095C85.4962 28.3875 86.1502 28.9041 87.7512 29.2995L89.1192 29.6355C91.6672 30.238 92.7242 31.2615 92.7242 33.0779C92.7242 35.4011 90.8752 36.8562 87.9312 36.8562C85.1782 36.8562 83.3182 35.4353 83.1982 33.1892L85.1002 33.1893Z" fill="white"/>
<path d="M96.7372 25.4529V27.5955H98.4592V29.0671H96.7372V34.0584C96.7372 34.8337 97.0822 35.1951 97.8392 35.1951C98.0432 35.1915 98.2472 35.1772 98.4502 35.1521V36.615C98.1102 36.6785 97.7642 36.7073 97.4182 36.7009C95.5852 36.7009 94.8702 36.0124 94.8702 34.2566V29.0671H93.5542V27.5955H94.8702V25.4529H96.7372Z" fill="white"/>
<path fill-rule="evenodd" clip-rule="evenodd" d="M103.749 27.4841C101.133 27.4841 99.4551 29.2742 99.4551 32.1228C99.4551 34.9792 101.116 36.7615 103.749 36.7615C106.383 36.7615 108.044 34.9793 108.044 32.1228C108.044 29.2741 106.374 27.4841 103.749 27.4841ZM103.749 29.0154C105.255 29.0154 106.15 30.1687 106.15 32.1228C106.15 34.0847 105.255 35.2293 103.749 35.2293C102.243 35.2293 101.347 34.0847 101.347 32.1228C101.347 30.1775 102.243 29.0154 103.749 29.0154Z" fill="white"/>
<path d="M109.576 27.5954H111.348V29.1364H111.391C111.639 28.1444 112.548 27.4616 113.569 27.5006C113.783 27.4999 113.997 27.5231 114.206 27.57V29.3083C113.936 29.2256 113.654 29.1877 113.371 29.196C112.825 29.1738 112.296 29.3915 111.924 29.792C111.551 30.1925 111.373 30.7357 111.434 31.279V36.6491H109.576V27.5954Z" fill="white"/>
<path fill-rule="evenodd" clip-rule="evenodd" d="M118.876 36.7615C120.924 36.7615 122.524 35.6335 122.774 33.99H121.01C120.671 34.8301 119.821 35.3479 118.919 35.2634C118.243 35.2883 117.588 35.0215 117.122 34.5309C116.656 34.0402 116.424 33.373 116.483 32.699V32.5867H122.878V31.95C122.878 29.2048 121.303 27.4841 118.798 27.4841C116.251 27.4841 114.607 29.3259 114.607 32.1658C114.607 34.9968 116.242 36.7615 118.876 36.7615ZM121.018 31.2878L116.492 31.2879C116.49 30.6766 116.733 30.09 117.166 29.6585C117.599 29.227 118.186 28.9863 118.798 28.99C119.404 28.977 119.989 29.2175 120.41 29.6537C120.832 30.0899 121.052 30.6822 121.018 31.2878Z" fill="white"/>
<path fill-rule="evenodd" clip-rule="evenodd" d="M53.3228 15.7021C52.7789 15.1277 52.0062 14.8276 51.2172 14.8842H49.062V20.851H51.2172C52.9946 20.851 54.0248 19.7553 54.0248 17.849C54.1243 17.0643 53.8667 16.2764 53.3228 15.7021ZM51.1137 20.0072H49.9887V15.7274H51.1137C51.6745 15.6963 52.2199 15.9174 52.6007 16.3303C52.9815 16.7432 53.1578 17.3047 53.0815 17.8612C53.1638 18.42 52.99 18.9861 52.6083 19.4025C52.2265 19.8188 51.6775 20.0409 51.1137 20.0072Z" fill="white"/>
<path fill-rule="evenodd" clip-rule="evenodd" d="M56.0704 16.5816C55.3814 17.0092 54.9944 17.7903 55.0716 18.5974C54.993 19.4054 55.3796 20.188 56.0692 20.6164C56.7587 21.0449 57.6316 21.0449 58.3212 20.6164C59.0107 20.188 59.3974 19.4054 59.3187 18.5974C59.3959 17.7903 59.0089 17.0092 58.32 16.5816C57.631 16.1541 56.7593 16.1541 56.0704 16.5816ZM57.1966 17.0505C57.9662 17.0505 58.4046 17.6213 58.4046 18.5974C58.4046 19.5774 57.9662 20.1477 57.1966 20.1477C56.4242 20.1477 55.9896 19.5813 55.9896 18.5974C55.9896 17.6213 56.4242 17.0505 57.1966 17.0505Z" fill="white"/>
<path d="M64.9644 20.8508H64.0424L63.1119 17.5344H63.0415L62.1148 20.8508H61.2017L59.9604 16.3479H60.8619L61.6684 19.7839H61.7349L62.6607 16.3479H63.5132L64.4389 19.7839H64.5093L65.312 16.3479H66.2007L64.9644 20.8508Z" fill="white"/>
<path d="M67.2446 16.3477H68.1V17.0631H68.1665C68.3974 16.5364 68.937 16.2142 69.5102 16.2608C69.954 16.2275 70.3889 16.3977 70.6921 16.7235C70.9953 17.0493 71.1339 17.4954 71.0688 17.9356V20.8506H70.1801V18.1588C70.1801 17.4352 69.8657 17.0753 69.2084 17.0753C68.9074 17.0613 68.6153 17.1794 68.4086 17.3987C68.2019 17.6181 68.1014 17.9167 68.1332 18.2164V20.8507H67.2446V16.3477Z" fill="white"/>
<path d="M72.4849 14.5901H73.3732V20.8508H72.4849V14.5901Z" fill="white"/>
<path fill-rule="evenodd" clip-rule="evenodd" d="M75.6078 16.5816C74.9188 17.0091 74.5318 17.7903 74.6088 18.5974C74.5298 19.4055 74.9168 20.1881 75.6058 20.6165C76.2958 21.0449 77.1688 21.0449 77.8588 20.6165C78.5478 20.1881 78.9348 19.4055 78.8558 18.5974C78.9328 17.7903 78.5458 17.0091 77.8568 16.5816C77.1678 16.1541 76.2968 16.1541 75.6078 16.5816ZM76.7338 17.0506C77.5028 17.0506 77.9418 17.6214 77.9418 18.5974C77.9418 19.5774 77.5028 20.1477 76.7338 20.1477C75.9608 20.1477 75.5268 19.5813 75.5268 18.5975C75.5268 17.6214 75.9608 17.0506 76.7338 17.0506Z" fill="white"/>
<path fill-rule="evenodd" clip-rule="evenodd" d="M81.467 18.2331C80.395 18.2996 79.792 18.7668 79.792 19.5774C79.793 19.9617 79.957 20.3275 80.243 20.5842C80.529 20.841 80.911 20.9648 81.293 20.925C81.838 20.9502 82.355 20.6801 82.645 20.218H82.716V20.8508H83.571V17.7742C83.571 16.823 82.934 16.261 81.806 16.261C80.784 16.261 80.056 16.7571 79.966 17.5305H80.826C80.925 17.2122 81.268 17.03 81.764 17.03C82.372 17.03 82.686 17.2986 82.686 17.7742V18.1628L81.467 18.2331ZM82.686 18.8162V19.1926C82.667 19.4796 82.532 19.7464 82.312 19.932C82.092 20.1175 81.807 20.206 81.52 20.177C81.037 20.177 80.685 19.9411 80.685 19.5359C80.685 19.1389 80.967 18.928 81.587 18.8865L82.686 18.8162Z" fill="white"/>
<path fill-rule="evenodd" clip-rule="evenodd" d="M86.6083 16.2732C85.4713 16.2732 84.7393 17.1746 84.7393 18.5974C84.7393 20.0237 85.4633 20.9251 86.6083 20.925C87.1893 20.9464 87.7343 20.6438 88.0223 20.1394H88.0933V20.8508H88.9443V14.5901H88.0563V17.0632H87.9893C87.7213 16.5546 87.1833 16.2467 86.6083 16.2732ZM86.8603 20.1272C86.1073 20.1272 85.6573 19.5525 85.6573 18.5974C85.6573 17.6502 86.1123 17.0715 86.8603 17.0715C87.6043 17.0715 88.0723 17.6629 88.0723 18.6013C88.0723 19.5442 87.6093 20.1272 86.8603 20.1272Z" fill="white"/>
<path fill-rule="evenodd" clip-rule="evenodd" d="M93.62 16.5816C92.931 17.0092 92.544 17.7903 92.621 18.5974C92.542 19.4054 92.929 20.188 93.618 20.6164C94.308 21.0449 95.181 21.0449 95.87 20.6164C96.56 20.188 96.947 19.4054 96.868 18.5974C96.945 17.7903 96.558 17.0092 95.869 16.5816C95.18 16.1541 94.309 16.1541 93.62 16.5816ZM94.746 17.0505C95.515 17.0505 95.954 17.6213 95.954 18.5974C95.954 19.5774 95.515 20.1477 94.746 20.1477C93.974 20.1477 93.539 19.5813 93.539 18.5974C93.539 17.6213 93.973 17.0505 94.746 17.0505Z" fill="white"/>
<path d="M98.0601 16.3477H98.9161V17.0631H98.9821C99.2131 16.5364 99.7531 16.2142 100.326 16.2608C100.77 16.2275 101.205 16.3977 101.508 16.7235C101.811 17.0493 101.95 17.4954 101.885 17.9356V20.8506H100.996V18.1588C100.996 17.4352 100.681 17.0753 100.024 17.0753C99.7231 17.0613 99.4311 17.1794 99.2241 17.3987C99.0181 17.6181 98.9171 17.9167 98.9491 18.2164V20.8507H98.0601V16.3477Z" fill="white"/>
<path d="M106.906 15.2268V16.3684H107.882V17.1169H106.906V19.4324C106.906 19.9041 107.1 20.1106 107.543 20.1106C107.656 20.1102 107.769 20.1034 107.882 20.0901V20.8303C107.722 20.8589 107.56 20.8741 107.398 20.8757C106.41 20.8757 106.016 20.5281 106.016 19.6599V17.1169H105.302V16.3684H106.016V15.2268H106.906Z" fill="white"/>
<path d="M109.096 14.5901H109.976V17.0715H110.047C110.289 16.5403 110.838 16.2177 111.42 16.2649C111.861 16.2409 112.29 16.4149 112.59 16.7395C112.89 17.0642 113.029 17.5056 112.971 17.9436V20.8508H112.081V18.1628C112.081 17.4436 111.746 17.0793 111.118 17.0793C110.809 17.054 110.504 17.1664 110.286 17.3865C110.067 17.6066 109.957 17.9119 109.984 18.2209V20.8508H109.096V14.5901Z" fill="white"/>
<path fill-rule="evenodd" clip-rule="evenodd" d="M116.201 20.9376C117.081 21.033 117.903 20.4842 118.152 19.6349L117.297 19.6348C117.083 20.0173 116.66 20.2329 116.225 20.1807C115.89 20.1845 115.569 20.0466 115.34 19.801C115.112 19.5554 114.998 19.2249 115.026 18.8907V18.8409H118.206V18.5308C118.206 17.1168 117.45 16.2608 116.197 16.2608C115.595 16.2557 115.021 16.512 114.622 16.9634C114.224 17.4147 114.041 18.0167 114.121 18.6134C114.039 19.2084 114.222 19.8094 114.623 20.257C115.024 20.7046 115.601 20.9534 116.201 20.9376ZM117.301 18.1837H115.026C115.022 17.8732 115.144 17.5742 115.363 17.3546C115.583 17.135 115.882 17.0133 116.192 17.0172C116.499 17.0102 116.794 17.1328 117.005 17.355C117.216 17.5771 117.323 17.8781 117.301 18.1837Z" fill="white"/>
</svg>
