<svg width="91" height="47" viewBox="0 0 91 47" fill="none" xmlns="http://www.w3.org/2000/svg">
<path d="M0 45C0 46.1046 0.89543 47 2 47H13.196C14.3006 47 15.196 46.1046 15.196 45V23.7439L25.8797 40.432H26.1452L36.8289 23.7439V45C36.8289 46.1046 37.7243 47 38.8289 47H50.2903C51.3949 47 52.2903 46.1046 52.2903 45V2.08566C52.2903 0.981087 51.3949 0.0856549 50.2903 0.0856549H37.2277C36.5271 0.0856549 35.8776 0.452223 35.5155 1.05197L26.1452 16.5727L16.7748 1.05197C16.4127 0.452224 15.7632 0.0856549 15.0627 0.0856549H2C0.895429 0.0856549 0 0.981086 0 2.08565V45Z" fill="white"/>
<path d="M56.7149 35.8299H91V45C91 46.1046 90.1046 47 89 47H58.7149C57.6103 47 56.7149 46.1046 56.7149 45V35.8299Z" fill="white"/>
<path d="M56.7149 2C56.7149 0.895432 57.6103 0 58.7149 0H89C90.1046 0 91 0.89543 91 2V11.1701H56.7149V2Z" fill="white"/>
<path d="M60.0328 17.413H87.6821V28.5831H60.0328V17.413Z" fill="white"/>
</svg>
